<?xml version="1.0" standalone="no"?>
<!DOCTYPE svg PUBLIC "-//W3C//DTD SVG 20010904//EN"
 "http://www.w3.org/TR/2001/REC-SVG-20010904/DTD/svg10.dtd">
<svg version="1.0" xmlns="http://www.w3.org/2000/svg"
 width="500.000000pt" height="500.000000pt" viewBox="0 0 500.000000 500.000000"
 preserveAspectRatio="xMidYMid meet">

<g transform="translate(0.000000,500.000000) scale(0.100000,-0.100000)"
fill="#000000" stroke="none">
<path d="M510 3146 c-120 -27 -222 -108 -254 -203 -20 -59 -20 -156 0 -215 19
-57 69 -110 134 -143 31 -15 116 -38 225 -60 232 -45 287 -77 304 -171 19
-105 -40 -194 -148 -224 -56 -15 -200 -12 -262 6 -73 22 -143 91 -160 157
l-11 47 -64 0 c-35 0 -64 -4 -64 -8 0 -32 35 -131 60 -167 87 -126 258 -190
448 -166 219 28 332 138 332 325 0 178 -98 260 -375 311 -171 32 -201 41 -243
72 -42 32 -62 72 -62 128 0 115 81 188 223 202 76 7 170 -15 227 -53 44 -29
84 -89 95 -141 l7 -33 64 0 64 0 -6 43 c-3 23 -16 65 -29 93 -71 161 -292 248
-505 200z"/>
<path d="M4200 2575 l0 -565 65 0 65 0 0 193 0 192 188 -193 187 -194 75 4 75
3 -200 203 -199 202 49 53 c28 28 115 118 195 200 l145 147 -78 0 -77 0 -180
-182 -179 -183 -1 343 0 342 -65 0 -65 0 0 -565z"/>
<path d="M3475 3078 c-3 -7 -75 -222 -160 -478 -107 -319 -155 -479 -155 -509
l0 -44 308 6 c169 4 355 7 415 7 l107 0 -1 43 c0 29 -53 182 -177 512 l-178
470 -77 3 c-56 2 -79 -1 -82 -10z m237 -510 l146 -403 -82 -7 c-44 -3 -175 -6
-289 -7 -163 -1 -208 2 -204 12 2 6 62 191 133 410 70 218 133 397 139 397 7
0 77 -181 157 -402z"/>
<path d="M1585 2829 c-62 -8 -121 -37 -170 -84 -21 -19 -40 -33 -42 -31 -3 2
-7 26 -11 53 l-7 48 -53 3 -52 3 0 -565 0 -566 60 0 60 0 0 215 c0 118 3 215
6 215 3 0 16 -13 29 -28 33 -39 113 -80 179 -93 67 -12 147 0 215 33 143 69
231 265 204 453 -33 230 -206 372 -418 344z m116 -119 c46 -13 113 -70 143
-123 37 -64 52 -155 37 -235 -14 -77 -30 -109 -79 -164 -48 -53 -102 -78 -173
-78 -154 0 -270 148 -257 330 14 195 162 316 329 270z"/>
<path d="M2463 2829 c-188 -30 -323 -203 -323 -414 0 -177 102 -340 248 -395
74 -29 195 -31 270 -6 70 24 145 85 182 149 42 72 40 77 -25 77 -54 0 -57 -1
-109 -54 -58 -60 -97 -76 -186 -76 -109 0 -214 79 -245 184 -8 27 -15 53 -15
58 0 4 143 9 318 10 l317 3 3 60 c14 254 -190 443 -435 404z m173 -133 c28
-13 65 -41 82 -62 29 -35 62 -115 62 -151 0 -10 -52 -13 -261 -13 l-261 0 7
33 c11 48 49 118 82 149 73 69 194 88 289 44z"/>
</g>
</svg>
